<svg xmlns="http://www.w3.org/2000/svg" width="475.082" height="511.635" viewBox="0 0 475.082 511.635"><g transform="translate(-83 -87)"><g transform="translate(-8 1)"><g transform="translate(72.724 86)"><path d="M482.513,83.942a35.1,35.1,0,0,0-25.694-10.85H420.278V45.682a44,44,0,0,0-13.422-32.261A44,44,0,0,0,374.591,0H356.323a43.986,43.986,0,0,0-32.264,13.422,43.978,43.978,0,0,0-13.422,32.261v27.41H201.007V45.683a43.988,43.988,0,0,0-13.422-32.261A43.985,43.985,0,0,0,155.321,0H137.05a43.993,43.993,0,0,0-32.264,13.422A43.993,43.993,0,0,0,91.365,45.683v27.41H54.823a35.12,35.12,0,0,0-25.7,10.85,35.123,35.123,0,0,0-10.85,25.7V475.093a35.134,35.134,0,0,0,10.85,25.693,35.123,35.123,0,0,0,25.7,10.849H456.812a37.058,37.058,0,0,0,36.546-36.542V109.639A35.13,35.13,0,0,0,482.513,83.942ZM347.187,45.686a8.779,8.779,0,0,1,9.13-9.135h18.268a8.79,8.79,0,0,1,9.137,9.135V127.91a8.79,8.79,0,0,1-9.137,9.135H356.317a8.779,8.779,0,0,1-9.13-9.135Zm-219.272,0a8.792,8.792,0,0,1,9.135-9.135h18.271a8.795,8.795,0,0,1,9.137,9.135V127.91a8.795,8.795,0,0,1-9.137,9.135H137.05a8.792,8.792,0,0,1-9.135-9.135Zm328.9,429.4H54.823V182.728H456.812Z" fill="#fff"/></g></g><g transform="translate(147.91 303)"><path d="M243.795,23.685Q214.5,0,173.091,0t-70.7,23.685q-29.3,23.684-29.3,57.16,0,17.213,6.444,28.265l71.29,122.218a20.174,20.174,0,0,0,9.083,8.206,30.454,30.454,0,0,0,26.369,0,21.388,21.388,0,0,0,9.276-8.206L266.643,109.11q6.446-11.053,6.447-28.265Q273.1,47.369,243.795,23.685Zm-35.354,85.741q-14.646,11.84-35.35,11.842t-35.353-11.842q-14.648-11.844-14.649-28.581t14.649-28.579q14.65-11.842,35.353-11.843t35.35,11.843q14.647,11.84,14.649,28.579T208.441,109.425Z" fill="#fff"/></g></g></svg>