<svg xmlns="http://www.w3.org/2000/svg" width="622.1" height="674" viewBox="0 0 622.1 674"><path d="M325.5,338.6h13c93.5,0,156.3-75.8,156.3-169.3v-13C494.8,62.8,432,0,338.6,0h-13C232,0,169.3,62.8,169.3,156.3v13C169.3,262.8,232,338.6,325.5,338.6ZM195.3,157.2C195.3,77.6,246.8,26,326.5,26h11.1c79.6,0,131.2,51.5,131.2,131.2v11.1c0,79.6-51.5,144.2-131.2,144.2H326.5c-79.6,0-131.2-64.6-131.2-144.2V157.2Zm280,207.4H188.8C98.9,364.6,26,424.4,26,514.3S98.9,664,188.8,664H475.3c89.9,0,162.8-59.8,162.8-149.7C638,424.4,565.2,364.6,475.3,364.6ZM462.3,638H201.8c-75.5,0-149.7-48.2-149.7-123.7s74.2-123.7,149.7-123.7H462.2c75.6,0,149.8,48.2,149.8,123.7C612,589.9,537.8,638,462.3,638Z" transform="translate(-21 5)" fill="#fff" stroke="#fff" stroke-width="10"/></svg>