<?xml version="1.0" encoding="iso-8859-1"?>
<!-- Generator: Adobe Illustrator 16.0.0, SVG Export Plug-In . SVG Version: 6.00 Build 0)  -->
<!DOCTYPE svg PUBLIC "-//W3C//DTD SVG 1.1//EN" "http://www.w3.org/Graphics/SVG/1.1/DTD/svg11.dtd">
<svg xmlns="http://www.w3.org/2000/svg" xmlns:xlink="http://www.w3.org/1999/xlink" version="1.1" id="Capa_1" x="0px" y="0px" width="512px" height="512px" viewBox="0 0 73.169 73.169" style="enable-background:new 0 0 73.169 73.169;" xml:space="preserve">
<g>
	<g id="Placemarker">
		<g>
			<path d="M38.775,0.181C38.427,0.074,38.068,0,37.686,0h-2.204c-0.381,0-0.741,0.074-1.089,0.181     C19.642,1.527,11.552,12,11.552,29.913c0,19.09,20.282,41.104,21.144,42.03c0.729,0.789,1.737,1.226,2.786,1.226h2.204     c1.05,0,2.058-0.437,2.787-1.226c0.86-0.926,21.144-22.94,21.144-42.03C61.615,12,53.527,1.526,38.775,0.181z M36.584,16.668     c5.333,0,9.669,4.476,9.669,9.974c0,5.506-4.336,9.98-9.669,9.98s-9.669-4.475-9.669-9.98     C26.915,21.144,31.251,16.668,36.584,16.668z" fill="#f2994a"/>
		</g>
	</g>
</g>
<g>
</g>
<g>
</g>
<g>
</g>
<g>
</g>
<g>
</g>
<g>
</g>
<g>
</g>
<g>
</g>
<g>
</g>
<g>
</g>
<g>
</g>
<g>
</g>
<g>
</g>
<g>
</g>
<g>
</g>
</svg>
