<svg xmlns="http://www.w3.org/2000/svg" viewBox="0 0 512 512" class="undefined"><style>.undefined{fill:#fff;}</style><path d="M512 56.4c0-0.1 0-0.1 0-0.2 0-0.1 0-0.1 0-0.2 0-0.1 0-0.3 0-0.4 0-0.1 0-0.2 0-0.3 0 0 0 0 0 0 0-0.1 0-0.1 0-0.2 0-0.1 0-0.1 0-0.2 0-0.1 0-0.2-0.1-0.3 0-0.1-0.1-0.3-0.1-0.4 0 0 0 0 0 0 0-0.1-0.1-0.2-0.1-0.3 0-0.1-0.1-0.3-0.1-0.4 0-0.1 0-0.1-0.1-0.2 0-0.1 0-0.1-0.1-0.2 0 0 0 0 0 0 0-0.1-0.1-0.2-0.1-0.3 -0.1-0.1-0.1-0.2-0.2-0.4 0-0.1-0.1-0.1-0.1-0.2 0 0-0.1-0.1-0.1-0.1 -0.1-0.2-0.2-0.3-0.3-0.5 0-0.1-0.1-0.1-0.1-0.2 0 0 0 0 0 0 0 0 0 0 0 0 -0.1-0.1-0.2-0.3-0.3-0.4 -0.1-0.1-0.1-0.2-0.2-0.2 0 0-0.1-0.1-0.1-0.1 0-0.1-0.1-0.1-0.2-0.2 -0.1-0.1-0.2-0.2-0.3-0.3 0 0 0 0 0 0 0 0-0.1-0.1-0.1-0.1 0 0 0 0-0.1-0.1 0 0-0.1-0.1-0.1-0.1 0 0 0 0-0.1 0 -0.1-0.1-0.1-0.1-0.2-0.2 -0.1-0.1-0.2-0.1-0.2-0.2 -0.1-0.1-0.3-0.2-0.4-0.3 -0.1-0.1-0.2-0.1-0.3-0.2 -0.1-0.1-0.2-0.1-0.4-0.2 0 0-0.1 0-0.2-0.1 0 0-0.1 0-0.1 0 -0.1 0-0.1 0-0.2-0.1 -0.1 0-0.2-0.1-0.3-0.1 -0.1 0-0.2-0.1-0.3-0.1 -0.1 0-0.1 0-0.2-0.1 -0.1 0-0.1 0-0.2-0.1 -0.1 0-0.3-0.1-0.4-0.1 -0.1 0-0.2 0-0.3-0.1 0 0 0 0-0.1 0 -0.1 0-0.3 0-0.4 0 -0.1 0-0.2 0-0.4 0 -0.1 0-0.1 0-0.2 0 -0.1 0-0.1 0-0.2 0 0 0 0 0 0 0 -0.1 0-0.3 0-0.4 0 -0.1 0-0.2 0-0.3 0 -0.1 0-0.1 0-0.2 0 -0.1 0-0.2 0-0.2 0 -0.1 0-0.2 0-0.3 0.1 -0.1 0-0.3 0-0.4 0.1 0 0 0 0 0 0 -0.1 0-0.2 0.1-0.3 0.1 -0.1 0-0.3 0.1-0.4 0.1 -0.1 0-0.1 0-0.2 0.1 0 0 0 0-0.1 0l-496 192c-3.1 1.2-5.1 4.2-5.1 7.5 0 3.3 2 6.3 5.1 7.5l147.9 56.9 47.4 146.1c0 0 0 0 0 0.1 0 0 0 0.1 0 0.1 0.1 0.3 0.3 0.6 0.4 0.9 0 0.1 0.1 0.1 0.1 0.2 0.1 0.3 0.3 0.6 0.5 0.8 0 0 0 0.1 0.1 0.1 0 0 0 0 0 0.1 0 0 0 0 0 0.1 0.1 0.1 0.1 0.2 0.2 0.2 0.1 0.1 0.1 0.2 0.2 0.3 0.1 0.1 0.1 0.1 0.2 0.2 0 0 0.1 0.1 0.1 0.1 0 0 0.1 0.1 0.1 0.1 0 0 0.1 0.1 0.1 0.1 0 0 0.1 0.1 0.2 0.1 0.2 0.1 0.3 0.3 0.5 0.4 0 0 0 0 0 0 0 0 0 0 0 0 0.1 0 0.1 0.1 0.2 0.1 0.3 0.2 0.5 0.3 0.8 0.5 0 0 0.1 0.1 0.1 0.1 0 0 0 0 0 0 0.3 0.1 0.5 0.3 0.8 0.4 0.1 0 0.1 0 0.2 0.1 0.1 0 0.2 0.1 0.2 0.1 0.3 0.1 0.7 0.2 1 0.2 0 0 0 0 0 0 0 0 0.1 0 0.1 0 0.4 0.1 0.8 0.1 1.1 0.1 0 0 0 0 0 0h0c0 0 0 0 0 0 0 0 0.1 0 0.1 0 0.3 0 0.7 0 1-0.1 0 0 0.1 0 0.1 0 0.1 0 0.1 0 0.2 0 0.3 0 0.5-0.1 0.8-0.2 0.1 0 0.2 0 0.2-0.1 0 0 0 0 0 0 0 0 0.1 0 0.1 0 0.1 0 0.2-0.1 0.4-0.1 0.2-0.1 0.3-0.1 0.5-0.2 0 0 0 0 0.1 0 0 0 0 0 0 0 0.1 0 0.1-0.1 0.2-0.1 0.2-0.1 0.3-0.2 0.5-0.3 0.1-0.1 0.2-0.1 0.3-0.2 0 0 0 0 0 0 0 0 0.1 0 0.1-0.1 0.1-0.1 0.3-0.2 0.4-0.3 0.1-0.1 0.1-0.1 0.2-0.2 0.1-0.1 0.2-0.1 0.2-0.2 0.1-0.1 0.1-0.1 0.2-0.2 0.2-0.2 0.5-0.5 0.7-0.8 0 0 0 0 0.1-0.1 0 0 0-0.1 0.1-0.1 0 0 0 0 0.1-0.1l58.5-79c2.6-3.6 1.9-8.6-1.7-11.2 -3.6-2.6-8.6-1.9-11.2 1.7l-25.4 34.3 20.2-55.1 191.1 72.5c0.9 0.3 1.9 0.5 2.8 0.5 1.4 0 2.8-0.4 4-1.1 2.1-1.2 3.5-3.3 3.9-5.7l55.3-360.5c0 0 0 0 0-0.1 0-0.1 0-0.3 0-0.4C512 56.6 512 56.5 512 56.4zM449.6 85.6L221.1 251.6c-3.6 2.6-4.4 7.6-1.8 11.2 1.6 2.2 4 3.3 6.5 3.3 1.6 0 3.3-0.5 4.7-1.5l218.3-158.5L244.4 335.4c-0.8 0.8-1.4 1.7-1.9 2.8 -0.1 0.2-0.1 0.4-0.2 0.6l-33.9 92.7 -41.4-127.7c-0.8-2.4-2.6-4.2-4.7-5 0 0 0 0 0 0L30.2 248 449.6 85.6zM442.3 405.5l-178.5-67.8L492 81.5 442.3 405.5z" class="undefined"/><path d="M185.5 295.3c1.6 0 3.3-0.5 4.7-1.5l15.6-11.3c3.6-2.6 4.4-7.6 1.8-11.2 -2.6-3.6-7.6-4.4-11.2-1.8l-15.5 11.3c-3.6 2.6-4.4 7.6-1.8 11.2C180.6 294.2 183 295.3 185.5 295.3z" class="undefined"/></svg>