<?xml version="1.0" encoding="UTF-8" standalone="no"?>
<!-- Generator: Adobe Illustrator 16.0.0, SVG Export Plug-In . SVG Version: 6.00 Build 0)  -->

<svg
   xmlns:dc="http://purl.org/dc/elements/1.1/"
   xmlns:cc="http://creativecommons.org/ns#"
   xmlns:rdf="http://www.w3.org/1999/02/22-rdf-syntax-ns#"
   xmlns:svg="http://www.w3.org/2000/svg"
   xmlns="http://www.w3.org/2000/svg"
   xmlns:sodipodi="http://sodipodi.sourceforge.net/DTD/sodipodi-0.dtd"
   xmlns:inkscape="http://www.inkscape.org/namespaces/inkscape"
   version="1.1"
   id="Capa_1"
   x="0px"
   y="0px"
   width="512px"
   height="512px"
   viewBox="0 0 404.085 404.085"
   style="enable-background:new 0 0 404.085 404.085;"
   xml:space="preserve"
   sodipodi:docname="search-on-map-ultrathin-sign.svg"
   inkscape:version="0.92.3 (2405546, 2018-03-11)"><metadata
   id="metadata47"><rdf:RDF><cc:Work
       rdf:about=""><dc:format>image/svg+xml</dc:format><dc:type
         rdf:resource="http://purl.org/dc/dcmitype/StillImage" /></cc:Work></rdf:RDF></metadata><defs
   id="defs45">
		
		
		
	</defs><sodipodi:namedview
   pagecolor="#ffffff"
   bordercolor="#666666"
   borderopacity="1"
   objecttolerance="10"
   gridtolerance="10"
   guidetolerance="10"
   inkscape:pageopacity="0"
   inkscape:pageshadow="2"
   inkscape:window-width="1366"
   inkscape:window-height="745"
   id="namedview43"
   showgrid="false"
   inkscape:zoom="0.4609375"
   inkscape:cx="256"
   inkscape:cy="256"
   inkscape:window-x="-8"
   inkscape:window-y="-8"
   inkscape:window-maximized="1"
   inkscape:current-layer="g10" />
<g
   id="g10"
   style="fill:#aa0000;stroke-width:0.07892285;stroke-miterlimit:4;stroke-dasharray:none">
	<path
   style="fill:#ffffff;stroke-width:2.36768555;stroke-miterlimit:4;stroke-dasharray:none;stroke:#ffffff;stroke-opacity:1;fill-opacity:1"
   d="m 86.176,187.497 c 31.217,-31.212 82.011,-31.212 113.23,0 1.986,1.983 1.986,5.204 0,7.19 -1.985,1.984 -5.204,1.984 -7.192,0 -27.253,-27.246 -71.599,-27.246 -98.85,0 -27.248,27.255 -27.248,71.597 -0.002,98.849 23.999,23.995 62.552,27.288 90.039,7.6 3.781,-2.33 5.973,-1.28 7.89,0.709 3.831,4.598 54.621,56.039 88.146,89.817 2.907,2.91 7.989,2.91 10.896,0 1.455,-1.456 2.256,-3.391 2.256,-5.45 0,-2.059 -0.801,-3.995 -2.243,-5.437 l -90.012,-89.464 c -1.858,-1.847 -2.252,-4.518 0.2,-7.791 8.533,-11.395 13.436,-26.213 13.436,-39.406 0,-2.809 2.276,-5.085 5.085,-5.085 2.808,0 5.085,2.276 5.085,5.085 0,14.335 -5.069,30.168 -13.664,42.939 l 87.048,86.516 c 3.376,3.375 5.235,7.864 5.235,12.643 0,4.773 -1.859,9.264 -5.235,12.641 -3.377,3.376 -7.867,5.233 -12.641,5.233 -4.777,0 -9.266,-1.858 -12.652,-5.247 -58.523,-58.962 -78.78,-79.779 -85.929,-87.521 -13.16,8.518 -28.267,12.714 -43.347,12.712 -20.724,0 -41.381,-7.901 -56.783,-23.302 -31.21,-31.22 -31.21,-82.012 0.004,-113.231 z"
   id="path2" /><path
   style="fill:#ffffff;stroke-width:2.36768555;stroke-miterlimit:4;stroke-dasharray:none;fill-opacity:1;stroke:#ffffff;stroke-opacity:1"
   d="m 182.136,349.743 c 0,0 -21.486,17.532 -30.194,22.743 -9.981,5.972 -26.386,9.586 -37.332,5.645 L 37.211,350.281 C 26.628,346.474 17.69,333.756 17.69,322.509 V 75.834 c 0,-4.874 1.677,-8.736 4.727,-10.878 3.046,-2.144 7.25,-2.417 11.838,-0.764 l 27.674,9.958 c 2.266,0.817 4.774,-0.36 5.592,-2.633 0.818,-2.271 -0.362,-4.775 -2.633,-5.594 L 37.214,55.965 C 29.98,53.361 22.755,54.033 17.39,57.803 12.025,61.574 8.948,68.147 8.948,75.834 V 322.51 c 0,14.829 11.352,30.978 25.305,35.999 l 77.399,27.85 c 4.492,1.618 9.643,2.387 14.95,2.387 11.004,0 22.151,-4.104 30.6,-9.275 8.257,-5.054 30.194,-22.744 30.194,-22.744 1.93,-1.453 2.315,-4.193 0.862,-6.122 -1.453,-1.929 -4.196,-2.315 -6.122,-0.862 z"
   id="path4" /><path
   style="fill:#ffffff;stroke-width:2.36768555;stroke-miterlimit:4;stroke-dasharray:none;stroke:#ffffff;stroke-opacity:1;fill-opacity:1;stroke-dashoffset:0"
   d="m 359.95965,38.207123 -66.635,-26.417 c -13.659,-5.4140001 -32.935,-4.3170001 -45.687,5.561 l -12.009,8.564 c -10.67,7.611 -74.93,53.804 -74.93,53.804 -11.093,7.984 -16.515,11.626 -20.026,11.626 -5.767,0 -22.467,-5.104 -22.467,-5.104 -2.397,-0.333 -4.603,1.327 -4.94,3.716 -0.337,2.39 1.326,4.602 3.716,4.941 0,0 17.925,5.103997 22.469,5.103997 7.729,0 16.293,-5.944997 26.358,-13.187997 0,0 64.238,-46.177 74.9,-53.783 l 12.008,-8.564 c 10.736,-7.596 26.583,-8.832 37.386,-4.55 l 66.633,26.417 c 10.509,4.167 19.385,17.234 19.385,28.538 V 309.99912 c 0,4.872 -1.679,8.736 -4.727,10.878 -3.048,2.142 -7.251,2.413 -11.838,0.764 l -69.556,-25.477 c -12.189,-4.517 -23.634,-9.211 -34.655,-1.734 -4.471,3.032 -11.776,7.923 -11.85,7.97 -2.034,1.303 -2.625,4.007 -1.324,6.04 1.301,2.033 4.006,2.625 6.04,1.322 0.312,-0.2 7.559,-5.124 12.272,-8.259 8.07,-5.368 14.372,-1.626 26.482,2.86 l 69.634,25.507 c 2.906,1.045 5.811,1.562 8.596,1.562 4.144,0 8.021,-1.146 11.228,-3.402 5.364,-3.771 8.442,-10.343 8.442,-18.029 V 74.873123 c -0.002,-14.774 -11.174,-31.221 -24.905,-36.666 z"
   id="path6" />
</g>
<g
   id="g12"
   style="fill:#aa0000;stroke-width:0.07892285;stroke-miterlimit:4;stroke-dasharray:none">
</g>
<g
   id="g14"
   style="fill:#aa0000;stroke-width:0.07892285;stroke-miterlimit:4;stroke-dasharray:none">
</g>
<g
   id="g16"
   style="fill:#aa0000;stroke-width:0.07892285;stroke-miterlimit:4;stroke-dasharray:none">
</g>
<g
   id="g18"
   style="fill:#aa0000;stroke-width:0.07892285;stroke-miterlimit:4;stroke-dasharray:none">
</g>
<g
   id="g20"
   style="fill:#aa0000;stroke-width:0.07892285;stroke-miterlimit:4;stroke-dasharray:none">
</g>
<g
   id="g22"
   style="fill:#aa0000;stroke-width:0.07892285;stroke-miterlimit:4;stroke-dasharray:none">
</g>
<g
   id="g24"
   style="fill:#aa0000;stroke-width:0.07892285;stroke-miterlimit:4;stroke-dasharray:none">
</g>
<g
   id="g26"
   style="fill:#aa0000;stroke-width:0.07892285;stroke-miterlimit:4;stroke-dasharray:none">
</g>
<g
   id="g28"
   style="fill:#aa0000;stroke-width:0.07892285;stroke-miterlimit:4;stroke-dasharray:none">
</g>
<g
   id="g30"
   style="fill:#aa0000;stroke-width:0.07892285;stroke-miterlimit:4;stroke-dasharray:none">
</g>
<g
   id="g32"
   style="fill:#aa0000;stroke-width:0.07892285;stroke-miterlimit:4;stroke-dasharray:none">
</g>
<g
   id="g34"
   style="fill:#aa0000;stroke-width:0.07892285;stroke-miterlimit:4;stroke-dasharray:none">
</g>
<g
   id="g36"
   style="fill:#aa0000;stroke-width:0.07892285;stroke-miterlimit:4;stroke-dasharray:none">
</g>
<g
   id="g38"
   style="fill:#aa0000;stroke-width:0.07892285;stroke-miterlimit:4;stroke-dasharray:none">
</g>
<g
   id="g40"
   style="fill:#aa0000;stroke-width:0.07892285;stroke-miterlimit:4;stroke-dasharray:none">
</g>
</svg>