<?xml version="1.0" encoding="iso-8859-1"?>
<!-- Generator: Adobe Illustrator 16.0.0, SVG Export Plug-In . SVG Version: 6.00 Build 0)  -->
<!DOCTYPE svg PUBLIC "-//W3C//DTD SVG 1.1//EN" "http://www.w3.org/Graphics/SVG/1.1/DTD/svg11.dtd">
<svg xmlns="http://www.w3.org/2000/svg" xmlns:xlink="http://www.w3.org/1999/xlink" version="1.1" id="Capa_1" x="0px" y="0px" width="512px" height="512px" viewBox="0 0 415.49 415.49" style="enable-background:new 0 0 415.49 415.49;" xml:space="preserve">
<g>
	<path d="M401.625,392.062l-114.75-114.75c28.688-28.688,47.812-70.763,47.812-114.75C334.688,72.675,262.013,0,172.125,0   S9.562,72.675,9.562,162.562s72.675,162.562,162.562,162.562c34.425,0,66.938-11.475,93.713-30.6L382.5,411.188   c5.737,5.737,13.388,5.737,19.125,0S407.362,397.8,401.625,392.062z M172.125,306c-78.413,0-143.438-65.025-143.438-143.438   c0-78.413,65.025-143.438,143.438-143.438c78.412,0,143.438,65.025,143.438,143.438C315.562,240.975,250.537,306,172.125,306z" fill="#FFFFFF"/>
</g>
<g>
</g>
<g>
</g>
<g>
</g>
<g>
</g>
<g>
</g>
<g>
</g>
<g>
</g>
<g>
</g>
<g>
</g>
<g>
</g>
<g>
</g>
<g>
</g>
<g>
</g>
<g>
</g>
<g>
</g>
</svg>
