<svg xmlns="http://www.w3.org/2000/svg" width="512" height="512" viewBox="0 0 664.1 664.1" class="undefined"><style>.a{fill:#fff;}</style><path d="M325.5 338.6h13c93.5 0 156.3-75.8 156.3-169.3v-13C494.8 62.8 432 0 338.6 0h-13C232 0 169.3 62.8 169.3 156.3v13C169.3 262.8 232 338.6 325.5 338.6zM195.3 157.2c0-79.6 51.5-131.2 131.2-131.2h11.1c79.6 0 131.2 51.5 131.2 131.2v11.1c0 79.6-51.5 144.2-131.2 144.2h-11.1c-79.6 0-131.2-64.6-131.2-144.2V157.2zM475.3 364.6H188.8c-89.9 0-162.8 59.8-162.8 149.7 0 89.9 72.9 149.7 162.8 149.7h286.5c89.9 0 162.8-59.8 162.8-149.7C638 424.4 565.2 364.6 475.3 364.6zM462.3 638H201.8c-75.5 0-149.7-48.2-149.7-123.7 0-75.5 74.2-123.7 149.7-123.7h260.4C537.8 390.6 612 438.8 612 514.3 612 589.9 537.8 638 462.3 638z" class="a"/></svg>
