<svg xmlns="http://www.w3.org/2000/svg" width="36" height="36" viewBox="0 0 36 36" class="undefined"><style>.undefined{fill:#F2994A}</style><path d="M35.5 17.4c0 3.6-1.6 6.9-4.2 9.5v6.2l-6.2-2.4c-2.2 0.8-4.5 1.2-7 1.2C8.3 32 0.5 25.4 0.5 17.4c0-8 7.8-14.5 17.5-14.5S35.5 9.4 35.5 17.4z" class="undefined"/><path d="M31.3 33.6c-0.1 0-0.1 0-0.2 0l-6.1-2.3c-2.2 0.8-4.6 1.2-7 1.2C8.1 32.5 0 25.7 0 17.4S8.1 2.4 18 2.4c9.9 0 18 6.7 18 15 0 3.5-1.5 7-4.2 9.7v6c0 0.2-0.1 0.3-0.2 0.4C31.5 33.6 31.4 33.6 31.3 33.6zM25 30.2c0.1 0 0.1 0 0.2 0l5.6 2.1v-5.5c0-0.1 0.1-0.3 0.2-0.4 2.6-2.5 4.1-5.8 4.1-9.1 0-7.7-7.6-14-17-14S1 9.7 1 17.4s7.6 14 17 14c2.4 0 4.7-0.4 6.9-1.2C24.9 30.2 25 30.2 25 30.2z" class="undefined"/></svg>